<svg xmlns="http://www.w3.org/2000/svg" viewBox="0 0 470 629" width="470" height="629">
  <defs>
    <linearGradient id="ga1" x1="0" y1="0" x2="1" y2="1">
      <stop offset="0%" stop-color="#5a3a7a"/>
      <stop offset="100%" stop-color="#3d1f5c"/>
    </linearGradient>
  </defs>
  <rect width="470" height="629" fill="url(#ga1)"/>
  <!-- Auditório visto de cima -->
  <ellipse cx="235" cy="200" rx="120" ry="60" fill="none" stroke="rgba(255,255,255,0.08)" stroke-width="2"/>
  <ellipse cx="235" cy="200" rx="80" ry="40" fill="none" stroke="rgba(255,255,255,0.06)" stroke-width="1.5"/>
  <!-- Palco -->
  <rect x="175" y="155" width="120" height="8" rx="4" fill="rgba(255,255,255,0.10)"/>
  <!-- Plateia (pontos) -->
  <circle cx="150" cy="300" r="6" fill="rgba(255,255,255,0.07)"/>
  <circle cx="180" cy="310" r="6" fill="rgba(255,255,255,0.06)"/>
  <circle cx="210" cy="305" r="6" fill="rgba(255,255,255,0.07)"/>
  <circle cx="240" cy="315" r="6" fill="rgba(255,255,255,0.06)"/>
  <circle cx="270" cy="300" r="6" fill="rgba(255,255,255,0.07)"/>
  <circle cx="300" cy="310" r="6" fill="rgba(255,255,255,0.06)"/>
  <circle cx="320" cy="305" r="6" fill="rgba(255,255,255,0.07)"/>
  <circle cx="140" cy="340" r="6" fill="rgba(255,255,255,0.05)"/>
  <circle cx="175" cy="350" r="6" fill="rgba(255,255,255,0.06)"/>
  <circle cx="210" cy="345" r="6" fill="rgba(255,255,255,0.05)"/>
  <circle cx="245" cy="355" r="6" fill="rgba(255,255,255,0.06)"/>
  <circle cx="280" cy="340" r="6" fill="rgba(255,255,255,0.05)"/>
  <circle cx="310" cy="350" r="6" fill="rgba(255,255,255,0.06)"/>
  <!-- Mapa do Brasil estilizado -->
  <path d="M200 430 Q210 410 230 415 Q250 405 260 420 Q275 410 280 430 Q290 440 280 460 Q270 480 250 490 Q230 495 215 480 Q200 465 195 450 Z" fill="rgba(255,255,255,0.06)" stroke="rgba(255,255,255,0.08)" stroke-width="1"/>
  <!-- Pin em João Pessoa -->
  <circle cx="272" cy="438" r="4" fill="rgba(255,255,255,0.15)"/>
  <circle cx="272" cy="438" r="8" fill="none" stroke="rgba(255,255,255,0.10)" stroke-width="1"/>
  <text x="235" y="560" text-anchor="middle" font-family="sans-serif" font-size="12" font-weight="600" fill="rgba(255,255,255,0.15)" letter-spacing="3">JOÃO PESSOA</text>
  <text x="235" y="580" text-anchor="middle" font-family="sans-serif" font-size="10" fill="rgba(255,255,255,0.10)" letter-spacing="2">PARAÍBA</text>
</svg>
